HIERARCHY
ROOT Root
{
	OFFSET 0.00000 0.00000 0.00000
	CHANNELS 6 Xposition Yposition Zposition Zrotation Xrotation Yrotation
	JOINT Hip
	{
		OFFSET 0 0 0	
		CHANNELS 3 Zrotation Xrotation Yrotation
		JOINT Tummy
		{
			OFFSET 0 0.04 0	
			CHANNELS 3 Zrotation Xrotation Yrotation
			JOINT ChestBottom
			{
				OFFSET 0 0.194 0	
				CHANNELS 3 Zrotation Xrotation Yrotation
				JOINT ChestTop
				{
					OFFSET 0 0.166 0	
					CHANNELS 3 Zrotation Xrotation Yrotation
					JOINT LeftCollar
					{
						OFFSET 0 0.1 0	
						CHANNELS 3 Zrotation Xrotation Yrotation
						JOINT LeftUpperArm
						{
							OFFSET 0.156 -0.02 0.03	
							CHANNELS 3 Zrotation Xrotation Yrotation
							JOINT LeftForeArm
							{
								OFFSET 0.035 -0.27 -0.01	
								CHANNELS 3 Zrotation Xrotation Yrotation
								JOINT LeftHand
								{
									OFFSET 0.01 -0.27 0.01	
									CHANNELS 3 Zrotation Xrotation Yrotation
									End Site
									{
										OFFSET 0 -0.15 0
									}
								}
							}
						}
					}
					JOINT RightCollar
					{
						OFFSET 0 0.1 0	
						CHANNELS 3 Zrotation Xrotation Yrotation
						JOINT RightUpperArm
						{
							OFFSET -0.156 -0.02 0.03	
							CHANNELS 3 Zrotation Xrotation Yrotation
							JOINT RightForeArm
							{
								OFFSET -0.035 -0.27 -0.01	
								CHANNELS 3 Zrotation Xrotation Yrotation
								JOINT RightHand
								{
									OFFSET -0.01 -0.27 0.01	
									CHANNELS 3 Zrotation Xrotation Yrotation
									End Site
									{
										OFFSET 0 -0.15 0
									}
								}
							}
						}
					}
					JOINT Neck
					{
						OFFSET 0 0.1 0	
						CHANNELS 3 Zrotation Xrotation Yrotation
						JOINT Head
						{
							OFFSET 0 0.127 0.03	
							CHANNELS 3 Zrotation Xrotation Yrotation
							End Site
							{
								OFFSET 0 0.127 0.03
							}
						}
					}
				}
			}
		}
	}
	JOINT LeftHip
	{
		OFFSET 0 0 0	
		CHANNELS 3 Zrotation Xrotation Yrotation
		JOINT LeftThigh
		{
			OFFSET 0.088 -0.06 0	
			CHANNELS 3 Zrotation Xrotation Yrotation
			JOINT LeftLowerLeg
			{
				OFFSET 0 -0.39 0.02	
				CHANNELS 3 Zrotation Xrotation Yrotation
				JOINT LeftFootTop
				{
					OFFSET 0 -0.43 -0.02	
					CHANNELS 3 Zrotation Xrotation Yrotation
					JOINT LeftFootFront
					{
						OFFSET 0 -0.07 0.085	
						CHANNELS 3 Zrotation Xrotation Yrotation
						End Site
						{
							OFFSET 0 -0.005 0.09
						}
					}
				}
				JOINT LeftHeel
				{
					OFFSET 0 -0.43 -0.02	
					CHANNELS 3 Zrotation Xrotation Yrotation
					End Site
					{
						OFFSET 0 -0.075 -0.05
					}
				}
			}
		}
	}
	JOINT RightHip
	{
		OFFSET 0 0 0	
		CHANNELS 3 Zrotation Xrotation Yrotation
		JOINT RightThigh
		{
			OFFSET -0.088 -0.06 0	
			CHANNELS 3 Zrotation Xrotation Yrotation
			JOINT RightLowerLeg
			{
				OFFSET 0 -0.39 0.02	
				CHANNELS 3 Zrotation Xrotation Yrotation
				JOINT RightFootTop
				{
					OFFSET 0 -0.43 -0.02	
					CHANNELS 3 Zrotation Xrotation Yrotation
					JOINT RightFootFront
					{
						OFFSET 0 -0.07 0.085	
						CHANNELS 3 Zrotation Xrotation Yrotation
						End Site
						{
							OFFSET 0 -0.005 0.09
						}
					}
				}
				JOINT RightHeel
				{
					OFFSET 0 -0.43 -0.02	
					CHANNELS 3 Zrotation Xrotation Yrotation
					End Site
					{
						OFFSET 0 -0.075 -0.05
					}
				}
			}
		}
	}
}
MOTION
Frames: 30
Frame Time: 0.05
0 0.955 0 -0 0 -0 -0 0 -0 -0 0 -0 29.02 38.994 -38.921 -0 0 -0 -0 0 -0 50.859 -70.29 62.937 -159.57 -50.741 -130.93 -0 0 -0 -0 0 -0 61.074 -80.088 73.047 142.52 -45.386 74.976 -0 0 -0 -1.8468 -43.261 3.4609 -1.8468 -43.261 3.4609 -0 0 -0 -0 0 -0 -0 0 -0 -0 0 -0 -0 0 -0 -0 0 -0 -0 0 -0 -0 0 -0 -0 0 -0 -0 0 -0 -0 0 -0 -0 0 -0 
0 0.955 0 -0 0 -0 -0 0 -0 -0 0 -0 28.967 39 -38.861 -0 0 -0 -0 0 -0 50.827 -70.271 62.862 -159.6 -50.715 -130.97 -0 0 -0 -0 0 -0 60.752 -80.128 72.703 142.6 -45.449 74.941 -0 0 -0 -1.8879 -43.28 3.3782 -1.8879 -43.28 3.3782 -0 0 -0 -0 0 -0 -0 0 -0 -0 0 -0 -0 0 -0 -0 0 -0 -0 0 -0 -0 0 -0 -0 0 -0 -0 0 -0 -0 0 -0 -0 0 -0 
0 0.955 0 -0 0 -0 -0 0 -0 -0 0 -0 28.916 38.872 -38.853 -0 0 -0 -0 0 -0 50.503 -70.13 62.552 -159.58 -50.764 -130.94 -0 0 -0 -0 0 -0 60.231 -80.088 72.197 142.58 -45.499 75.005 -0 0 -0 -1.8045 -43.333 3.3917 -1.8045 -43.333 3.3917 -0 0 -0 -0 0 -0 -0 0 -0 -0 0 -0 -0 0 -0 -0 0 -0 -0 0 -0 -0 0 -0 -0 0 -0 -0 0 -0 -0 0 -0 -0 0 -0 
0 0.955 0 -0 0 -0 -0 0 -0 -0 0 -0 28.908 38.59 -38.926 -0 0 -0 -0 0 -0 49.811 -69.841 61.973 -159.76 -50.76 -131.3 -0 0 -0 -0 0 -0 59.352 -79.985 71.421 142.51 -45.641 75.27 -0 0 -0 -1.5114 -43.685 3.6278 -1.5114 -43.685 3.6278 -0 0 -0 -0 0 -0 -0 0 -0 -0 0 -0 -0 0 -0 -0 0 -0 -0 0 -0 -0 0 -0 -0 0 -0 -0 0 -0 -0 0 -0 -0 0 -0 
0 0.955 0 -0 0 -0 -0 0 -0 -0 0 -0 28.836 38.285 -39.045 -0 0 -0 -0 0 -0 49.181 -69.444 61.313 -160.76 -50.727 -133.78 -0 0 -0 -0 0 -0 57.608 -79.92 69.907 142.36 -46.428 75.314 -0 0 -0 -1.0388 -44.35 4.0142 -1.0388 -44.35 4.0142 -0 0 -0 -0 0 -0 -0 0 -0 -0 0 -0 -0 0 -0 -0 0 -0 -0 0 -0 -0 0 -0 -0 0 -0 -0 0 -0 -0 0 -0 -0 0 -0 
0 0.955 0 -0 0 -0 -0 0 -0 -0 0 -0 28.843 37.921 -39.426 -0 0 -0 -0 0 -0 48.831 -68.922 60.847 -162.76 -50.911 -138.72 -0 0 -0 -0 0 -0 56.479 -79.606 69.247 140.78 -48.218 73.112 -0 0 -0 -0.50851 -44.734 4.4995 -0.50852 -44.734 4.4995 -0 0 -0 -0 0 -0 -0 0 -0 -0 0 -0 -0 0 -0 -0 0 -0 -0 0 -0 -0 0 -0 -0 0 -0 -0 0 -0 -0 0 -0 -0 0 -0 
0 0.955 0 -0 0 -0 -0 0 -0 -0 0 -0 28.811 37.679 -39.778 -0 0 -0 -0 0 -0 48.489 -68.77 60.105 -164.45 -51.682 -144.43 -0 0 -0 -0 0 -0 56.317 -79.257 69.35 137.43 -50.93 68.276 -0 0 -0 0.11619 -44.911 4.9955 0.11618 -44.911 4.9955 -0 0 -0 -0 0 -0 -0 0 -0 -0 0 -0 -0 0 -0 -0 0 -0 -0 0 -0 -0 0 -0 -0 0 -0 -0 0 -0 -0 0 -0 -0 0 -0 
0 0.955 0 -0 0 -0 -0 0 -0 -0 0 -0 28.564 37.621 -39.662 -0 0 -0 -0 0 -0 47.664 -69.397 58.119 -165.22 -53.054 -150.68 -0 0 -0 -0 0 -0 55.702 -79.059 68.971 132.13 -53.954 60.847 -0 0 -0 0.70129 -45.102 5.4465 0.70129 -45.102 5.4465 -0 0 -0 -0 0 -0 -0 0 -0 -0 0 -0 -0 0 -0 -0 0 -0 -0 0 -0 -0 0 -0 -0 0 -0 -0 0 -0 -0 0 -0 -0 0 -0 
0 0.955 0 -0 0 -0 -0 0 -0 -0 0 -0 28.053 37.511 -39.352 -0 0 -0 -0 0 -0 46.181 -70.196 54.425 -165.61 -55.299 -158.1 -0 0 -0 -0 0 -0 55.839 -78.506 69.362 124.56 -56.664 51.886 -0 0 -0 1.3308 -44.87 6.0267 1.3308 -44.87 6.0267 -0 0 -0 -0 0 -0 -0 0 -0 -0 0 -0 -0 0 -0 -0 0 -0 -0 0 -0 -0 0 -0 -0 0 -0 -0 0 -0 -0 0 -0 -0 0 -0 
0 0.955 0 -0 0 -0 -0 0 -0 -0 0 -0 28.022 37.48 -39.555 -0 0 -0 -0 0 -0 45.321 -71.182 51.707 -166.26 -58.136 -167.34 -0 0 -0 -0 0 -0 58.262 -78.011 72.197 115.38 -58.666 43.576 -0 0 -0 1.7622 -44.428 6.712 1.7622 -44.428 6.712 -0 0 -0 -0 0 -0 -0 0 -0 -0 0 -0 -0 0 -0 -0 0 -0 -0 0 -0 -0 0 -0 -0 0 -0 -0 0 -0 -0 0 -0 -0 0 -0 
0 0.955 0 -0 0 -0 -0 0 -0 -0 0 -0 27.77 37.297 -39.696 -0 0 -0 -0 0 -0 45.017 -71.766 51.043 -165.44 -59.768 -176.46 -0 0 -0 -0 0 -0 58.333 -77.655 72.585 106.4 -59.813 37.247 -0 0 -0 2.1888 -43.788 7.281 2.1888 -43.788 7.281 -0 0 -0 -0 0 -0 -0 0 -0 -0 0 -0 -0 0 -0 -0 0 -0 -0 0 -0 -0 0 -0 -0 0 -0 -0 0 -0 -0 0 -0 -0 0 -0 
0 0.955 0 -0 0 -0 -0 0 -0 -0 0 -0 27.018 36.6 -39.616 -0 0 -0 -0 0 -0 44.513 -71.027 50.185 -162.76 -60.788 -178.79 -0 0 -0 -0 0 -0 54.362 -77.378 68.813 98.638 -60.265 32.427 -0 0 -0 2.5078 -42.998 7.7504 2.5078 -42.998 7.7504 -0 0 -0 -0 0 -0 -0 0 -0 -0 0 -0 -0 0 -0 -0 0 -0 -0 0 -0 -0 0 -0 -0 0 -0 -0 0 -0 -0 0 -0 -0 0 -0 
0 0.955 0 -0 0 -0 -0 0 -0 -0 0 -0 26.432 36.181 -39.333 -0 0 -0 -0 0 -0 43.55 -69.038 47.888 -160.53 -60.127 -176.2 -0 0 -0 -0 0 -0 49.63 -77.841 63.45 94.909 -57.779 30.245 -0 0 -0 2.7978 -42.901 8.0567 2.7978 -42.901 8.0567 -0 0 -0 -0 0 -0 -0 0 -0 -0 0 -0 -0 0 -0 -0 0 -0 -0 0 -0 -0 0 -0 -0 0 -0 -0 0 -0 -0 0 -0 -0 0 -0 
0 0.955 0 -0 0 -0 -0 0 -0 -0 0 -0 26.109 36.841 -38.823 -0 0 -0 -0 0 -0 42.71 -67.26 44.658 -158.07 -56.998 -173.02 -0 0 -0 -0 0 -0 46.106 -79.201 58.086 94.375 -52.573 33.745 -0 0 -0 3.1227 -43.537 8.0515 3.1227 -43.537 8.0515 -0 0 -0 -0 0 -0 -0 0 -0 -0 0 -0 -0 0 -0 -0 0 -0 -0 0 -0 -0 0 -0 -0 0 -0 -0 0 -0 -0 0 -0 -0 0 -0 
0 0.955 0 -0 0 -0 -0 0 -0 -0 0 -0 25.484 35.995 -38.568 -0 0 -0 -0 0 -0 38.354 -64.539 36.856 -153.72 -54.552 -166.81 -0 0 -0 -0 0 -0 37.669 -78.866 50.301 96.632 -46.111 40.897 -0 0 -0 3.5934 -43.427 8.5988 3.5934 -43.427 8.5988 -0 0 -0 -0 0 -0 -0 0 -0 -0 0 -0 -0 0 -0 -0 0 -0 -0 0 -0 -0 0 -0 -0 0 -0 -0 0 -0 -0 0 -0 -0 0 -0 
0 0.955 0 -0 0 -0 -0 0 -0 -0 0 -0 26.262 35.88 -39.291 -0 0 -0 -0 0 -0 34.993 -63.622 30.394 -142.8 -54.703 -151.15 -0 0 -0 -0 0 -0 34.981 -79.027 51.358 99.174 -38.917 47.638 -0 0 -0 3.9601 -43.654 9.4231 3.9601 -43.654 9.4231 -0 0 -0 -0 0 -0 -0 0 -0 -0 0 -0 -0 0 -0 -0 0 -0 -0 0 -0 -0 0 -0 -0 0 -0 -0 0 -0 -0 0 -0 -0 0 -0 
0 0.955 0 -0 0 -0 -0 0 -0 -0 0 -0 26.99 35.335 -40.67 -0 0 -0 -0 0 -0 32.582 -62.645 26.108 -127.06 -55.221 -131.43 -0 0 -0 -0 0 -0 36.022 -78.282 58.305 99.219 -34.35 54.664 -0 0 -0 4.4338 -43.468 10.561 4.4338 -43.468 10.561 -0 0 -0 -0 0 -0 -0 0 -0 -0 0 -0 -0 0 -0 -0 0 -0 -0 0 -0 -0 0 -0 -0 0 -0 -0 0 -0 -0 0 -0 -0 0 -0 
0 0.955 0 -0 0 -0 -0 0 -0 -0 0 -0 28.341 35.351 -42.174 -0 0 -0 -0 0 -0 31.89 -62.224 23.151 -116.14 -56.072 -117.68 -0 0 -0 -0 0 -0 39.304 -77.44 69.35 97.168 -32.962 58.644 -0 0 -0 4.6899 -43.713 11.482 4.6899 -43.713 11.482 -0 0 -0 -0 0 -0 -0 0 -0 -0 0 -0 -0 0 -0 -0 0 -0 -0 0 -0 -0 0 -0 -0 0 -0 -0 0 -0 -0 0 -0 -0 0 -0 
0 0.955 0 -0 0 -0 -0 0 -0 -0 0 -0 29.036 35.798 -42.043 -0 0 -0 -0 0 -0 30.945 -62.454 17.477 -115.51 -58.383 -115.94 -0 0 -0 -0 0 -0 39.342 -77.444 75.712 94.466 -31.331 58.122 -0 0 -0 4.4844 -44.049 11.411 4.4844 -44.049 11.411 -0 0 -0 -0 0 -0 -0 0 -0 -0 0 -0 -0 0 -0 -0 0 -0 -0 0 -0 -0 0 -0 -0 0 -0 -0 0 -0 -0 0 -0 -0 0 -0 
0 0.955 0 -0 0 -0 -0 0 -0 -0 0 -0 29.529 35.725 -41.549 -0 0 -0 -0 0 -0 28.304 -62.248 10.309 -115.16 -59.363 -116.07 -0 0 -0 -0 0 -0 34.68 -78.474 76.405 92.36 -30.872 54.47 -0 0 -0 4.1186 -43.882 11.271 4.1186 -43.882 11.271 -0 0 -0 -0 0 -0 -0 0 -0 -0 0 -0 -0 0 -0 -0 0 -0 -0 0 -0 -0 0 -0 -0 0 -0 -0 0 -0 -0 0 -0 -0 0 -0 
0 0.955 0 -0 0 -0 -0 0 -0 -0 0 -0 29.039 36.612 -40.513 -0 0 -0 -0 0 -0 28.818 -61.902 7.6361 -111.98 -59.882 -115.36 -0 0 -0 -0 0 -0 25.117 -80.322 70.854 91.964 -33.814 57.712 -0 0 -0 3.8121 -43.53 10.615 3.8121 -43.53 10.615 -0 0 -0 -0 0 -0 -0 0 -0 -0 0 -0 -0 0 -0 -0 0 -0 -0 0 -0 -0 0 -0 -0 0 -0 -0 0 -0 -0 0 -0 -0 0 -0 
0 0.955 0 -0 0 -0 -0 0 -0 -0 0 -0 28.401 37.288 -39.647 -0 0 -0 -0 0 -0 29.721 -61.978 6.8684 -108.77 -59.53 -118.59 -0 0 -0 -0 0 -0 11.511 -81.718 58.998 92.044 -34.932 58.506 -0 0 -0 3.5836 -43.256 10.045 3.5836 -43.256 10.045 -0 0 -0 -0 0 -0 -0 0 -0 -0 0 -0 -0 0 -0 -0 0 -0 -0 0 -0 -0 0 -0 -0 0 -0 -0 0 -0 -0 0 -0 -0 0 -0 
0 0.955 0 -0 0 -0 -0 0 -0 -0 0 -0 28.975 37.827 -40.105 -0 0 -0 -0 0 -0 32.145 -62.227 8.599 -107.61 -59.215 -119.83 -0 0 -0 -0 0 -0 3.0524 -83.081 49.696 92.824 -33.036 57.596 -0 0 -0 3.5758 -43.706 10.189 3.5758 -43.706 10.189 -0 0 -0 -0 0 -0 -0 0 -0 -0 0 -0 -0 0 -0 -0 0 -0 -0 0 -0 -0 0 -0 -0 0 -0 -0 0 -0 -0 0 -0 -0 0 -0 
0 0.955 0 -0 0 -0 -0 0 -0 -0 0 -0 29.212 38.171 -40.109 -0 0 -0 -0 0 -0 32.171 -62.1 8.6469 -107.08 -59.203 -120.15 -0 0 -0 -0 0 -0 -5.3602 -83.756 40.58 93.933 -31.421 57.002 -0 0 -0 3.2562 -44.056 10.04 3.2562 -44.056 10.04 -0 0 -0 -0 0 -0 -0 0 -0 -0 0 -0 -0 0 -0 -0 0 -0 -0 0 -0 -0 0 -0 -0 0 -0 -0 0 -0 -0 0 -0 -0 0 -0 
0 0.955 0 -0 0 -0 -0 0 -0 -0 0 -0 29.247 38.199 -40.278 -0 0 -0 -0 0 -0 32.221 -61.314 8.6188 -107.84 -59.773 -122.99 -0 0 -0 -0 0 -0 -8.0059 -83.504 39.011 94.082 -30.296 51.798 -0 0 -0 2.942 -44.149 10.008 2.942 -44.149 10.008 -0 0 -0 -0 0 -0 -0 0 -0 -0 0 -0 -0 0 -0 -0 0 -0 -0 0 -0 -0 0 -0 -0 0 -0 -0 0 -0 -0 0 -0 -0 0 -0 
0 0.955 0 -0 0 -0 -0 0 -0 -0 0 -0 29.155 38.313 -40.207 -0 0 -0 -0 0 -0 31.22 -60.257 7.5688 -109.7 -60.191 -128.45 -0 0 -0 -0 0 -0 -12.158 -82.695 35.019 94.351 -28.228 47.723 -0 0 -0 2.669 -44.175 9.9281 2.669 -44.175 9.9281 -0 0 -0 -0 0 -0 -0 0 -0 -0 0 -0 -0 0 -0 -0 0 -0 -0 0 -0 -0 0 -0 -0 0 -0 -0 0 -0 -0 0 -0 -0 0 -0 
0 0.955 0 -0 0 -0 -0 0 -0 -0 0 -0 29.634 38.109 -40.617 -0 0 -0 -0 0 -0 28.877 -58.558 6.6256 -112.53 -60.168 -134.78 -0 0 -0 -0 0 -0 -16.577 -81.772 31.196 95.232 -26.495 45.015 -0 0 -0 2.3991 -44.203 10.207 2.3991 -44.203 10.207 -0 0 -0 -0 0 -0 -0 0 -0 -0 0 -0 -0 0 -0 -0 0 -0 -0 0 -0 -0 0 -0 -0 0 -0 -0 0 -0 -0 0 -0 -0 0 -0 
0 0.955 0 -0 0 -0 -0 0 -0 -0 0 -0 29.554 38.449 -40.658 -0 0 -0 -0 0 -0 27.418 -57.049 6.3732 -115.81 -60.12 -141.02 -0 0 -0 -0 0 -0 -19.306 -80.662 29.135 96.209 -25.983 44.622 -0 0 -0 2.5619 -44.523 10.429 2.5619 -44.522 10.429 -0 0 -0 -0 0 -0 -0 0 -0 -0 0 -0 -0 0 -0 -0 0 -0 -0 0 -0 -0 0 -0 -0 0 -0 -0 0 -0 -0 0 -0 -0 0 -0 
0 0.955 0 -0 0 -0 -0 0 -0 -0 0 -0 29.323 38.898 -40.614 -0 0 -0 -0 0 -0 26.757 -56.127 6.607 -117.15 -59.888 -143.79 -0 0 -0 -0 0 -0 -19.759 -79.559 28.935 96.33 -25.641 44.003 -0 0 -0 2.8194 -44.786 10.576 2.8194 -44.786 10.576 -0 0 -0 -0 0 -0 -0 0 -0 -0 0 -0 -0 0 -0 -0 0 -0 -0 0 -0 -0 0 -0 -0 0 -0 -0 0 -0 -0 0 -0 -0 0 -0 
0 0.955 0 -0 0 -0 -0 0 -0 -0 0 -0 29.218 39.188 -40.592 -0 0 -0 -0 0 -0 25.709 -55.829 5.6889 -116.27 -59.817 -143.88 -0 0 -0 -0 0 -0 -19.888 -78.637 28.414 96.121 -24.626 43.199 -0 0 -0 2.8302 -44.753 10.493 2.8302 -44.753 10.493 -0 0 -0 -0 0 -0 -0 0 -0 -0 0 -0 -0 0 -0 -0 0 -0 -0 0 -0 -0 0 -0 -0 0 -0 -0 0 -0 -0 0 -0 -0 0 -0 
